<svg xmlns="http://www.w3.org/2000/svg" width="1200" height="560" viewBox="0 0 1200 560" role="img">
<defs>
<linearGradient id="supaGradient" x1="0" y1="0" x2="1" y2="0">
<stop offset="0%" stop-color="#059669" />
<stop offset="100%" stop-color="#34d399" />
</linearGradient>
<linearGradient id="slateGradient" x1="0" y1="0" x2="1" y2="0">
<stop offset="0%" stop-color="#3b4757" />
<stop offset="100%" stop-color="#526079" />
</linearGradient>
</defs>
<rect width="100%" height="100%" rx="14" fill="#0b1220" />
<text x="36.0" y="46.0" fill="#f8fafc" font-family="ui-sans-serif, system-ui, 'Segoe UI', Helvetica, Arial, sans-serif" font-size="21" font-weight="700">Diff latency vs schema size</text>
<text x="36.0" y="70.0" fill="#94a3b8" font-family="ui-sans-serif, system-ui, 'Segoe UI', Helvetica, Arial, sans-serif" font-size="12.5" font-weight="400">Median seconds per diff at each fixture scale, log scale · lower is better</text>
<line x1="96" y1="474.0" x2="930" y2="474.0" stroke="#1e293b" stroke-width="1" />
<text x="84.0" y="478.0" fill="#64748b" font-family="ui-sans-serif, system-ui, 'Segoe UI', Helvetica, Arial, sans-serif" font-size="11" font-weight="400" text-anchor="end">0.10s</text>
<line x1="96" y1="447.1" x2="930" y2="447.1" stroke="#1e293b" stroke-width="1" />
<text x="84.0" y="451.1" fill="#64748b" font-family="ui-sans-serif, system-ui, 'Segoe UI', Helvetica, Arial, sans-serif" font-size="11" font-weight="400" text-anchor="end">0.20s</text>
<line x1="96" y1="411.4" x2="930" y2="411.4" stroke="#1e293b" stroke-width="1" />
<text x="84.0" y="415.4" fill="#64748b" font-family="ui-sans-serif, system-ui, 'Segoe UI', Helvetica, Arial, sans-serif" font-size="11" font-weight="400" text-anchor="end">0.50s</text>
<line x1="96" y1="384.5" x2="930" y2="384.5" stroke="#1e293b" stroke-width="1" />
<text x="84.0" y="388.5" fill="#64748b" font-family="ui-sans-serif, system-ui, 'Segoe UI', Helvetica, Arial, sans-serif" font-size="11" font-weight="400" text-anchor="end">1.00s</text>
<line x1="96" y1="357.6" x2="930" y2="357.6" stroke="#1e293b" stroke-width="1" />
<text x="84.0" y="361.6" fill="#64748b" font-family="ui-sans-serif, system-ui, 'Segoe UI', Helvetica, Arial, sans-serif" font-size="11" font-weight="400" text-anchor="end">2.00s</text>
<line x1="96" y1="321.9" x2="930" y2="321.9" stroke="#1e293b" stroke-width="1" />
<text x="84.0" y="325.9" fill="#64748b" font-family="ui-sans-serif, system-ui, 'Segoe UI', Helvetica, Arial, sans-serif" font-size="11" font-weight="400" text-anchor="end">5.00s</text>
<line x1="96" y1="295.0" x2="930" y2="295.0" stroke="#1e293b" stroke-width="1" />
<text x="84.0" y="299.0" fill="#64748b" font-family="ui-sans-serif, system-ui, 'Segoe UI', Helvetica, Arial, sans-serif" font-size="11" font-weight="400" text-anchor="end">10.0s</text>
<line x1="96" y1="268.1" x2="930" y2="268.1" stroke="#1e293b" stroke-width="1" />
<text x="84.0" y="272.1" fill="#64748b" font-family="ui-sans-serif, system-ui, 'Segoe UI', Helvetica, Arial, sans-serif" font-size="11" font-weight="400" text-anchor="end">20.0s</text>
<line x1="96" y1="232.4" x2="930" y2="232.4" stroke="#1e293b" stroke-width="1" />
<text x="84.0" y="236.4" fill="#64748b" font-family="ui-sans-serif, system-ui, 'Segoe UI', Helvetica, Arial, sans-serif" font-size="11" font-weight="400" text-anchor="end">50.0s</text>
<line x1="96" y1="205.5" x2="930" y2="205.5" stroke="#1e293b" stroke-width="1" />
<text x="84.0" y="209.5" fill="#64748b" font-family="ui-sans-serif, system-ui, 'Segoe UI', Helvetica, Arial, sans-serif" font-size="11" font-weight="400" text-anchor="end">100s</text>
<line x1="96" y1="178.6" x2="930" y2="178.6" stroke="#1e293b" stroke-width="1" />
<text x="84.0" y="182.6" fill="#64748b" font-family="ui-sans-serif, system-ui, 'Segoe UI', Helvetica, Arial, sans-serif" font-size="11" font-weight="400" text-anchor="end">200s</text>
<line x1="96" y1="142.9" x2="930" y2="142.9" stroke="#1e293b" stroke-width="1" />
<text x="84.0" y="146.9" fill="#64748b" font-family="ui-sans-serif, system-ui, 'Segoe UI', Helvetica, Arial, sans-serif" font-size="11" font-weight="400" text-anchor="end">500s</text>
<line x1="96" y1="116.0" x2="930" y2="116.0" stroke="#1e293b" stroke-width="1" />
<text x="84.0" y="120.0" fill="#64748b" font-family="ui-sans-serif, system-ui, 'Segoe UI', Helvetica, Arial, sans-serif" font-size="11" font-weight="400" text-anchor="end">1000s</text>
<text x="96.0" y="500.0" fill="#e2e8f0" font-family="ui-sans-serif, system-ui, 'Segoe UI', Helvetica, Arial, sans-serif" font-size="12" font-weight="550" text-anchor="middle">additive</text>
<text x="96.0" y="518.0" fill="#64748b" font-family="ui-sans-serif, system-ui, 'Segoe UI', Helvetica, Arial, sans-serif" font-size="11" font-weight="400" text-anchor="middle">1 table</text>
<text x="304.5" y="500.0" fill="#e2e8f0" font-family="ui-sans-serif, system-ui, 'Segoe UI', Helvetica, Arial, sans-serif" font-size="12" font-weight="550" text-anchor="middle">functions-policies</text>
<text x="304.5" y="518.0" fill="#64748b" font-family="ui-sans-serif, system-ui, 'Segoe UI', Helvetica, Arial, sans-serif" font-size="11" font-weight="400" text-anchor="middle">1 table</text>
<text x="513.0" y="500.0" fill="#e2e8f0" font-family="ui-sans-serif, system-ui, 'Segoe UI', Helvetica, Arial, sans-serif" font-size="12" font-weight="550" text-anchor="middle">realistic</text>
<text x="513.0" y="518.0" fill="#64748b" font-family="ui-sans-serif, system-ui, 'Segoe UI', Helvetica, Arial, sans-serif" font-size="11" font-weight="400" text-anchor="middle">50 tables</text>
<text x="721.5" y="500.0" fill="#e2e8f0" font-family="ui-sans-serif, system-ui, 'Segoe UI', Helvetica, Arial, sans-serif" font-size="12" font-weight="550" text-anchor="middle">xl</text>
<text x="721.5" y="518.0" fill="#64748b" font-family="ui-sans-serif, system-ui, 'Segoe UI', Helvetica, Arial, sans-serif" font-size="11" font-weight="400" text-anchor="middle">1,000 tables</text>
<text x="930.0" y="500.0" fill="#e2e8f0" font-family="ui-sans-serif, system-ui, 'Segoe UI', Helvetica, Arial, sans-serif" font-size="12" font-weight="550" text-anchor="middle">xxl</text>
<text x="930.0" y="518.0" fill="#64748b" font-family="ui-sans-serif, system-ui, 'Segoe UI', Helvetica, Arial, sans-serif" font-size="11" font-weight="400" text-anchor="middle">2,500 tables</text>
<path d="M96.0,444.2 L304.5,444.8 L513.0,441.1 L721.5,375.9 L930.0,344.8" fill="none" stroke="#34d399" stroke-width="3" stroke-linecap="round" stroke-linejoin="round" />
<circle cx="96.0" cy="444.2" r="4.5" fill="#34d399" />
<circle cx="304.5" cy="444.8" r="4.5" fill="#34d399" />
<circle cx="513.0" cy="441.1" r="4.5" fill="#34d399" />
<circle cx="721.5" cy="375.9" r="4.5" fill="#34d399" />
<circle cx="930.0" cy="344.8" r="4.5" fill="#34d399" />
<path d="M96.0,448.4 L304.5,450.3 L513.0,449.7 L721.5,371.9 L930.0,338.9" fill="none" stroke="#22d3ee" stroke-width="3" stroke-linecap="round" stroke-linejoin="round" />
<circle cx="96.0" cy="448.4" r="4.5" fill="#22d3ee" />
<circle cx="304.5" cy="450.3" r="4.5" fill="#22d3ee" />
<circle cx="513.0" cy="449.7" r="4.5" fill="#22d3ee" />
<circle cx="721.5" cy="371.9" r="4.5" fill="#22d3ee" />
<circle cx="930.0" cy="338.9" r="4.5" fill="#22d3ee" />
<path d="M96.0,332.0 L304.5,334.7 L513.0,329.6 L721.5,242.0 L930.0,176.9" fill="none" stroke="#94a3b8" stroke-width="2" stroke-linecap="round" stroke-linejoin="round" stroke-opacity="0.75" />
<circle cx="96.0" cy="332.0" r="3.5" fill="#94a3b8" />
<circle cx="304.5" cy="334.7" r="3.5" fill="#94a3b8" />
<circle cx="513.0" cy="329.6" r="3.5" fill="#94a3b8" />
<circle cx="721.5" cy="242.0" r="3.5" fill="#94a3b8" />
<circle cx="930.0" cy="176.9" r="3.5" fill="#94a3b8" />
<path d="M96.0,332.5 L304.5,333.6 L513.0,326.7 L721.5,242.4 L930.0,177.7" fill="none" stroke="#7c8aa0" stroke-width="2" stroke-linecap="round" stroke-linejoin="round" stroke-opacity="0.75" />
<circle cx="96.0" cy="332.5" r="3.5" fill="#7c8aa0" />
<circle cx="304.5" cy="333.6" r="3.5" fill="#7c8aa0" />
<circle cx="513.0" cy="326.7" r="3.5" fill="#7c8aa0" />
<circle cx="721.5" cy="242.4" r="3.5" fill="#7c8aa0" />
<circle cx="930.0" cy="177.7" r="3.5" fill="#7c8aa0" />
<path d="M96.0,334.9 L304.5,337.0 L513.0,329.2 L721.5,242.6 L930.0,177.1" fill="none" stroke="#64748b" stroke-width="2" stroke-linecap="round" stroke-linejoin="round" stroke-opacity="0.75" />
<circle cx="96.0" cy="334.9" r="3.5" fill="#64748b" />
<circle cx="304.5" cy="337.0" r="3.5" fill="#64748b" />
<circle cx="513.0" cy="329.2" r="3.5" fill="#64748b" />
<circle cx="721.5" cy="242.6" r="3.5" fill="#64748b" />
<circle cx="930.0" cy="177.1" r="3.5" fill="#64748b" />
<path d="M96.0,325.1 L304.5,333.7 L513.0,330.8 L721.5,242.5 L930.0,177.5" fill="none" stroke="#8896ab" stroke-width="2" stroke-linecap="round" stroke-linejoin="round" stroke-opacity="0.75" />
<circle cx="96.0" cy="325.1" r="3.5" fill="#8896ab" />
<circle cx="304.5" cy="333.7" r="3.5" fill="#8896ab" />
<circle cx="513.0" cy="330.8" r="3.5" fill="#8896ab" />
<circle cx="721.5" cy="242.5" r="3.5" fill="#8896ab" />
<circle cx="930.0" cy="177.5" r="3.5" fill="#8896ab" />
<path d="M96.0,333.3 L304.5,337.6 L513.0,330.5 L721.5,242.4 L930.0,176.7" fill="none" stroke="#566379" stroke-width="2" stroke-linecap="round" stroke-linejoin="round" stroke-opacity="0.75" />
<circle cx="96.0" cy="333.3" r="3.5" fill="#566379" />
<circle cx="304.5" cy="337.6" r="3.5" fill="#566379" />
<circle cx="513.0" cy="330.5" r="3.5" fill="#566379" />
<circle cx="721.5" cy="242.4" r="3.5" fill="#566379" />
<circle cx="930.0" cy="176.7" r="3.5" fill="#566379" />
<text x="958.0" y="176.7" fill="#94a3b8" font-family="ui-sans-serif, system-ui, 'Segoe UI', Helvetica, Arial, sans-serif" font-size="12" font-weight="450">supabase-pgadmin 210s</text>
<line x1="936" y1="176.9" x2="954" y2="190.7" stroke="#94a3b8" stroke-opacity="0.45" stroke-width="1" />
<text x="958.0" y="194.7" fill="#94a3b8" font-family="ui-sans-serif, system-ui, 'Segoe UI', Helvetica, Arial, sans-serif" font-size="12" font-weight="450">supabase-default 208s</text>
<line x1="936" y1="177.1" x2="954" y2="208.7" stroke="#64748b" stroke-opacity="0.45" stroke-width="1" />
<text x="958.0" y="212.7" fill="#94a3b8" font-family="ui-sans-serif, system-ui, 'Segoe UI', Helvetica, Arial, sans-serif" font-size="12" font-weight="450">supabase-pg-delta 207s</text>
<line x1="936" y1="177.5" x2="954" y2="226.7" stroke="#8896ab" stroke-opacity="0.45" stroke-width="1" />
<text x="958.0" y="230.7" fill="#94a3b8" font-family="ui-sans-serif, system-ui, 'Segoe UI', Helvetica, Arial, sans-serif" font-size="12" font-weight="450">supabase-pg-schema 206s</text>
<line x1="936" y1="177.7" x2="954" y2="244.7" stroke="#7c8aa0" stroke-opacity="0.45" stroke-width="1" />
<text x="958.0" y="248.7" fill="#94a3b8" font-family="ui-sans-serif, system-ui, 'Segoe UI', Helvetica, Arial, sans-serif" font-size="12" font-weight="450">supabase-migra 205s</text>
<text x="958.0" y="338.9" fill="#22d3ee" font-family="ui-sans-serif, system-ui, 'Segoe UI', Helvetica, Arial, sans-serif" font-size="12" font-weight="650">supaschema-file 3.23s</text>
<line x1="936" y1="344.8" x2="954" y2="352.9" stroke="#34d399" stroke-opacity="0.45" stroke-width="1" />
<text x="958.0" y="356.9" fill="#34d399" font-family="ui-sans-serif, system-ui, 'Segoe UI', Helvetica, Arial, sans-serif" font-size="12" font-weight="650">supaschema-db 2.78s</text>
<text x="36.0" y="538.0" fill="#64748b" font-family="ui-sans-serif, system-ui, 'Segoe UI', Helvetica, Arial, sans-serif" font-size="11" font-weight="400">supaschema 0.1.0  ·  Supabase CLI 2.106.0  ·  Node v24.14.0  ·  macOS  ·  1–3 iterations per fixture</text>
</svg>